<svg id="Layer_1" data-name="Layer 1" xmlns="http://www.w3.org/2000/svg" viewBox="0 0 260 80.88"><defs><style>.cls-1{fill:#d3583e;}.cls-2{fill:#4c4d4f;}</style></defs><title>dig-south-tech-hub-logo</title><path class="cls-1" d="M260,28.29q0,13.48,0,27c0,.62-.17.8-.8.81H251c-.59,0-.76-.18-.77-.85q0-5.7,0-11.4c0-3.63,0-7.25,0-10.88,0-1-.3-1.31-1.3-1.31H243a3.33,3.33,0,0,0-.52,0c-.65.1-.82.3-.82,1,0,2.2,0,4.41,0,6.61q0,7.47,0,14.94c0,.4-.05.79-.09,1.19a.69.69,0,0,1-.76.68h-8.59a.74.74,0,0,1-.79-.67,4.61,4.61,0,0,1-.11-.87q0-13.33,0-26.66,0-12.75.06-25.51c0-.47,0-.94,0-1.4a1.29,1.29,0,0,1,1.39-1.37q3.77,0,7.54.11a1.26,1.26,0,0,1,1.3,1.39q0,7,0,14,0,3.49-.06,7c0,.44.16.65.6.66l2.55,0c1.42,0,2.85,0,4.27,0,.91,0,1-.1,1-1,0-6.73,0-13.47,0-20.2,0-1.33.68-1.66,1.67-1.68,2.2,0,4.41,0,6.61,0a3.18,3.18,0,0,1,1,.2A1.13,1.13,0,0,1,260,1.12c0,.21,0,.42,0,.62q0,13.28,0,26.55Z" transform="translate(0 0.49)"/><path class="cls-1" d="M0,28Q0,14.48,0,.92c0-.81.18-1,1-1,5.08,0,10.17-.12,15.25,0a11.54,11.54,0,0,1,9.53,4.72A11.27,11.27,0,0,1,28,11.22c.1,7,.22,14.09.27,21.13,0,2.93-.07,5.86-.2,8.79a42.08,42.08,0,0,1-.57,5.78,10.32,10.32,0,0,1-5.07,6.93A16,16,0,0,1,16.92,56a3.26,3.26,0,0,1-.62.06H.79c-.75,0-.79,0-.79-.8Q0,41.65,0,28Zm10.06-.29q0,9,0,18c0,.94.34,1.37,1.28,1.41,1.3,0,2.6,0,3.89,0a2,2,0,0,0,2-1.42,11.76,11.76,0,0,0,.77-3c.16-2.37.18-4.75.2-7.13q.09-9.74.13-19.47a41.2,41.2,0,0,0-.21-4.2,2.88,2.88,0,0,0-1.63-2.61,11.24,11.24,0,0,0-5.35-.73c-1,.09-1.06.26-1.06,1.28Q10.07,18.8,10.07,27.75Z" transform="translate(0 0.49)"/><path class="cls-1" d="M190.93,22.48q0,10.57,0,21.14a12.22,12.22,0,0,1-9.65,12,18.14,18.14,0,0,1-9.35-.24c-4.61-1.43-7.27-4.7-8.39-9.29a12.09,12.09,0,0,1-.31-2.83q0-21,0-42c0-1.23.39-1.62,1.6-1.63l6.71-.07a3.09,3.09,0,0,1,.72.08,1.1,1.1,0,0,1,.89,1.17q0,10,0,20.1c0,7,0,14,.1,21a7.31,7.31,0,0,0,.6,2.7,3.77,3.77,0,0,0,4.21,2.15,3.5,3.5,0,0,0,3.11-3.09,13.64,13.64,0,0,0,.12-2.27q0-20.41,0-40.82a1,1,0,0,1,1.08-1.08h7.24c.89,0,1.28.43,1.28,1.33Q190.93,11.7,190.93,22.48Z" transform="translate(0 0.49)"/><path class="cls-1" d="M130,26.91c0-5.43,0-10.87,0-16.3,0-4.66,2.31-7.86,6.47-9.79a14.67,14.67,0,0,1,5.7-1.23,19.23,19.23,0,0,1,7.78,1,10.4,10.4,0,0,1,6.94,8.15,8.14,8.14,0,0,1,.11,1.5q0,10.91,0,21.82c0,3.75.1,7.51-.12,11.24a13.31,13.31,0,0,1-4.75,10,12,12,0,0,1-6.59,2.54,18.15,18.15,0,0,1-7.15-.61A11.08,11.08,0,0,1,130.33,46a33.53,33.53,0,0,1-.28-5.7C130,35.87,130,31.39,130,26.91Zm17.33.73h0q0-7.47,0-14.94a4.57,4.57,0,0,0-1-2.93,3.88,3.88,0,0,0-6.19.41,5,5,0,0,0-.72,2.62q0,14.57,0,29.15a6.34,6.34,0,0,0,.73,3.16A3.54,3.54,0,0,0,143.68,47a3.26,3.26,0,0,0,3.17-2.12,7.94,7.94,0,0,0,.51-2.62C147.4,37.36,147.38,32.5,147.38,27.64Z" transform="translate(0 0.49)"/><path class="cls-1" d="M66.08,25.37c0,4,0,7.95,0,11.92a26.94,26.94,0,0,0,.64,6.81,7.86,7.86,0,0,0,1,2,1.8,1.8,0,0,0,1.47.77,7,7,0,0,0,2.92-.35,2.25,2.25,0,0,0,1.46-1.43,12.6,12.6,0,0,0,.7-4.18c0-1.63,0-3.26-.07-4.89a.93.93,0,0,0-1-1q-1.3-.08-2.6-.12c-.95,0-1.28-.33-1.3-1.27q-.06-2.84-.09-5.67c0-.69.21-.91.9-.91H82.45c.79,0,1.12.36,1.12,1.22q0,11.19-.1,22.39c0,1.09,0,2.19-.07,3.28,0,.64-.22.78-.86.79q-1.41,0-2.81,0c-1,0-1.36-.34-1.51-1.34-.12-.78-.36-1.08-.94-1.08a.89.89,0,0,0-.62.26,8.55,8.55,0,0,1-5.89,2.94,12.49,12.49,0,0,1-6.25-.61,11.59,11.59,0,0,1-6.94-7.1A12.17,12.17,0,0,1,57,44.52c-.28-3.63-.57-7.26-.71-10.89-.12-3.19-.06-6.39,0-9.58A81.69,81.69,0,0,1,57,12.91a38.53,38.53,0,0,1,1.27-5.77,9.43,9.43,0,0,1,5.62-5.79A15.32,15.32,0,0,1,71.43,0,12.39,12.39,0,0,1,82.58,9.92a29.13,29.13,0,0,1,.35,4.3c.06,1.59,0,3.19,0,4.79,0,1-.28,1.26-1.26,1.26H74.86c-.8,0-1.11-.31-1.11-1.14,0-1.7,0-3.4,0-5.1A7.81,7.81,0,0,0,73,10.75,3.62,3.62,0,0,0,67.7,9.21a3,3,0,0,0-1.52,2.67c0,2.26-.07,4.51-.09,6.77s0,4.48,0,6.72Z" transform="translate(0 0.49)"/><path class="cls-1" d="M102.43,35.94h3.33A1,1,0,0,1,106.92,37c.09,2.1.12,4.2.23,6.29a6,6,0,0,0,.39,1.91,3.19,3.19,0,0,0,2.74,2.1,6.76,6.76,0,0,0,2.93-.13,2.62,2.62,0,0,0,1.92-2.06,11.9,11.9,0,0,0,0-5.16,10,10,0,0,0-2.62-4.48c-3.24-3.45-6.48-6.91-9.74-10.35a16.66,16.66,0,0,1-4.49-9.57,16.41,16.41,0,0,1,1.83-10,10.83,10.83,0,0,1,8.51-5.87,14.11,14.11,0,0,1,11.85,3.53A10.51,10.51,0,0,1,124,10.9c.1,2,.26,4,.39,6,0,.21,0,.42,0,.62,0,.7-.25.93-.95.95-2.22,0-4.44.12-6.66.12-1.08,0-1.42-.4-1.49-1.49s-.08-2.39-.23-3.58a21.1,21.1,0,0,0-.61-3A3,3,0,0,0,111,8.44c-2.53.33-3.08,1.69-3.32,4a6.09,6.09,0,0,0,1,4,49.48,49.48,0,0,0,5.65,7.06c1.82,2,3.69,3.91,5.57,5.84a17.26,17.26,0,0,1,4.77,9.89,18.24,18.24,0,0,1-.23,7.47,14.76,14.76,0,0,1-3,5.68,10.45,10.45,0,0,1-6.06,3.27,14.5,14.5,0,0,1-8.2-.13,12.73,12.73,0,0,1-8.77-9.84,27.59,27.59,0,0,1-.22-8.69c.08-.71.34-.88,1-.89h3.28Z" transform="translate(0 0.49)"/><path class="cls-1" d="M206.21,32.5q0-11.14,0-22.28c0-.19,0-.38,0-.57a1,1,0,0,0-1.12-1.07h-5.62c-.61,0-1.21,0-1.82-.08s-.74-.23-.74-.78q0-3.41-.05-6.82a4.39,4.39,0,0,1,.06-.67.7.7,0,0,1,.79-.65h26.76c1.05,0,1.37.3,1.37,1.35q0,3.36,0,6.72c0,.73-.2.93-.92.93l-6.82,0h-.42c-1,.05-1.41.49-1.41,1.48q0,4.27,0,8.54,0,6.56,0,13.12,0,11.66-.08,23.32c0,.81-.2,1-1,1h-8.23c-.67,0-.84-.18-.84-.82q0-11.37,0-22.75Z" transform="translate(0 0.49)"/><path class="cls-1" d="M48.81-.09H50.9c1.17,0,1.73.69,1.35,1.83-.56,1.69-1.2,3.36-1.83,5-1.31,3.45-2.63,6.89-3.95,10.34-.25.66-.14.81.59.83,1.18,0,2.36,0,3.53.18a1.82,1.82,0,0,1,1.55,2.57,15.44,15.44,0,0,1-.72,1.72Q43.54,40,35.65,57.65a3.27,3.27,0,0,1-.57.86c-.38.42-.78.35-.9-.22a4.34,4.34,0,0,1,0-1.58q2-11.42,4-22.84.37-2.07.74-4.14c.13-.71.11-.78-.62-.83-1.07-.07-2.15-.08-3.22-.13l-1.46-.08a2.08,2.08,0,0,1-1.84-2.41c.78-3.24,1.47-6.51,2.22-9.76q1.65-7.18,3.33-14.35A2.11,2.11,0,0,1,39.57.32C42.65.13,45.73,0,48.81-.2Z" transform="translate(0 0.49)"/><path class="cls-2" d="M198,74.19v5.92h-3V66.27H198v5.34h5.53V66.28h3V80.11H203.6c0-.2,0-.4,0-.61,0-1.6,0-3.19,0-4.79,0-.39-.09-.55-.52-.54C201.41,74.2,199.76,74.19,198,74.19Z" transform="translate(0 0.49)"/><path class="cls-2" d="M80.49,68.86l-2,1.54c-.16-.19-.28-.35-.43-.5a3.9,3.9,0,0,0-3.89-1.32A1.33,1.33,0,0,0,73,69.7a1.27,1.27,0,0,0,.79,1.44c.84.36,1.73.61,2.59.92s1.68.55,2.48.92a3.67,3.67,0,0,1,.37,6.34,6.94,6.94,0,0,1-4.23,1,6.13,6.13,0,0,1-5.31-2.95l-.13-.23-.09-.2,2.2-1.3c.1.13.18.23.26.34a4.16,4.16,0,0,0,4.45,1.89,3,3,0,0,0,.64-.21,1.39,1.39,0,0,0,.9-1.17,1.3,1.3,0,0,0-.71-1.34,9.79,9.79,0,0,0-1.52-.64c-1.08-.37-2.19-.65-3.26-1.06a3.3,3.3,0,0,1-2.32-2.58A3.85,3.85,0,0,1,73,66.33a6.65,6.65,0,0,1,7.36,2.27Z" transform="translate(0 0.49)"/><path class="cls-2" d="M221.23,80.12V66.27h2.94v5.28a2.27,2.27,0,0,0,.29-.23,3.6,3.6,0,0,1,6.42,1.55,8.6,8.6,0,0,1-.05,4.67,3.75,3.75,0,0,1-6.33,1.71l-.3-.27v1.13Zm7-5a12.12,12.12,0,0,0-.27-1.46,1.78,1.78,0,0,0-2.46-1.21,3.55,3.55,0,0,0-1,.61,1,1,0,0,0-.31.65c0,.85,0,1.7,0,2.55a1.39,1.39,0,0,0,1.09,1.62A1.87,1.87,0,0,0,228,76.59,13.46,13.46,0,0,0,228.24,75.14Z" transform="translate(0 0.49)"/><path class="cls-2" d="M41.79,66.26h2.92v5.25l.18.13a3.06,3.06,0,0,1,.33-.48,4,4,0,0,1,3.55-1.21,2.39,2.39,0,0,1,2.29,2.56c.05,2.5,0,5,0,7.5a.45.45,0,0,1,0,.12H48.11c0-.18,0-.36,0-.54,0-1.93,0-3.85,0-5.78,0-1.23-.64-1.73-1.81-1.35a5.29,5.29,0,0,0-1.35.75.81.81,0,0,0-.21.58c0,1.91,0,3.82,0,5.73v.6H41.79Z" transform="translate(0 0.49)"/><path class="cls-2" d="M117.52,71.52a4.92,4.92,0,0,1,3-1.59c1.87-.19,3.37.56,3.38,2.85s0,4.86,0,7.33h-3c0-.18,0-.36,0-.54,0-1.93,0-3.85,0-5.78,0-1.22-.65-1.72-1.82-1.33a5.26,5.26,0,0,0-1.35.75.82.82,0,0,0-.2.59c0,1.91,0,3.82,0,5.73v.59H114.6V66.27h2.92Z" transform="translate(0 0.49)"/><path class="cls-2" d="M180.64,71.52a4.93,4.93,0,0,1,3-1.59c1.87-.19,3.37.56,3.38,2.85s0,4.86,0,7.33h-3v-.54c0-1.93,0-3.85,0-5.78,0-1.22-.65-1.72-1.82-1.33a5.26,5.26,0,0,0-1.35.75.82.82,0,0,0-.2.59c0,1.91,0,3.82,0,5.73v.59h-2.93V66.27h2.92Z" transform="translate(0 0.49)"/><path class="cls-2" d="M209.24,70.11h3v.57c0,1.94,0,3.89,0,5.83,0,1.23.63,1.73,1.8,1.38a4.7,4.7,0,0,0,1.32-.68,1,1,0,0,0,.34-.67c0-1.94,0-3.89,0-5.83v-.59h2.93v10h-2.93V78.72l-.16-.11a3.52,3.52,0,0,1-.36.48,4.15,4.15,0,0,1-3.61,1.22,2.38,2.38,0,0,1-2.32-2.54C209.19,75.24,209.24,72.7,209.24,70.11Z" transform="translate(0 0.49)"/><path class="cls-2" d="M103.85,80.13h-2.92V78.72l-.14-.07c-.13.15-.25.31-.4.45a4.2,4.2,0,0,1-3.77,1.18,2.35,2.35,0,0,1-2.14-2.47c-.07-2.37,0-4.75,0-7.13,0-.17,0-.34,0-.55h3c0,.19,0,.38,0,.56,0,1.94,0,3.89,0,5.83,0,1.22.64,1.73,1.82,1.37a5.7,5.7,0,0,0,1.44-.78.8.8,0,0,0,.21-.58c0-1.93,0-3.85,0-5.78v-.61h2.94Z" transform="translate(0 0.49)"/><path class="cls-2" d="M92.55,75.16c-.07,2-.68,3.79-2.7,4.69A5.66,5.66,0,0,1,85,79.8a4.51,4.51,0,0,1-2.55-4.21,7.77,7.77,0,0,1,.23-2.31c.7-2.65,3.06-3.55,5.3-3.35a4.46,4.46,0,0,1,4.44,3.73,8.31,8.31,0,0,1,.13.87C92.54,74.73,92.54,74.94,92.55,75.16Zm-2.89,0a16.6,16.6,0,0,0-.43-1.87A1.77,1.77,0,0,0,87.48,72a1.82,1.82,0,0,0-1.81,1.24,5.14,5.14,0,0,0,0,3.76,1.81,1.81,0,0,0,1.81,1.24A1.77,1.77,0,0,0,89.23,77,17.37,17.37,0,0,0,89.66,75.15Z" transform="translate(0 0.49)"/><path class="cls-2" d="M62.72,76H56.16a2,2,0,0,0,1.53,2.23,4.08,4.08,0,0,0,3.2-.72l.5-.34,1.15,1.77a15.64,15.64,0,0,1-1.58.9,6.84,6.84,0,0,1-4.13.4,4.39,4.39,0,0,1-3.7-4.39,8.6,8.6,0,0,1,.19-2.32,5,5,0,0,1,7.1-3.06,4.31,4.31,0,0,1,2.11,3.3C62.65,74.45,62.65,75.18,62.72,76ZM60,74.22A1.9,1.9,0,0,0,58.13,72a2,2,0,0,0-2,2.21Z" transform="translate(0 0.49)"/><path class="cls-2" d="M158.5,76a2.2,2.2,0,0,0,2.72,2.3,5.26,5.26,0,0,0,2.53-1.15l1.16,1.78a15.83,15.83,0,0,1-1.51.87,6.82,6.82,0,0,1-4.22.42,4.39,4.39,0,0,1-3.68-4.41,8.39,8.39,0,0,1,.19-2.26,5,5,0,0,1,7-3.12,4.32,4.32,0,0,1,2.17,3.36c.12.71.12,1.43.18,2.21H158.5Zm3.83-1.76A1.9,1.9,0,0,0,160.45,72a2,2,0,0,0-1.9,2.21Z" transform="translate(0 0.49)"/><path class="cls-2" d="M39.92,66.27v2.44H35.8V80.1h-3c0-.2,0-.42,0-.63,0-3.36,0-6.73,0-10.09,0-.54-.16-.68-.68-.66-1,0-1.91,0-2.86,0l-.59,0V66.27Z" transform="translate(0 0.49)"/><path class="cls-2" d="M145.29,68.73V66.27h11.26v2.45h-4.12v11.4h-3v-.68c0-3.36,0-6.73,0-10.09,0-.47-.12-.64-.61-.63C147.66,68.75,146.5,68.73,145.29,68.73Z" transform="translate(0 0.49)"/><path class="cls-2" d="M130.37,78.82l1.06-1.51a22.32,22.32,0,0,0,2.63,1,5.07,5.07,0,0,0,1.84,0,.82.82,0,0,0,.73-.83.87.87,0,0,0-.67-.94c-.75-.22-1.51-.36-2.27-.55a9.28,9.28,0,0,1-1.09-.33,2.56,2.56,0,0,1-1.79-2.38,2.85,2.85,0,0,1,1.41-2.77,4.92,4.92,0,0,1,2.85-.61,6.21,6.21,0,0,1,3.94,1.4l-1.11,1.62a7.82,7.82,0,0,0-1.43-.7,9.06,9.06,0,0,0-2.08-.27.83.83,0,0,0-.16,1.65c.77.21,1.55.36,2.32.55a9.17,9.17,0,0,1,.94.28,2.52,2.52,0,0,1,1.88,2.3,3,3,0,0,1-1.48,2.94,5.75,5.75,0,0,1-3.21.68A6.81,6.81,0,0,1,130.37,78.82Z" transform="translate(0 0.49)"/><path class="cls-2" d="M110.14,66.68v3.39h2.52v2.17h-2.53c0,.43,0,.83,0,1.22,0,1.09,0,2.19,0,3.28s.35,1.35,1.34,1.36c.33,0,.65,0,1-.06,0,.6,0,1.2,0,1.81a.41.41,0,0,1-.26.29,9.46,9.46,0,0,1-3.46-.08,1.84,1.84,0,0,1-1.53-1.74c-.07-1.09-.08-2.18-.09-3.27,0-.9,0-1.8,0-2.77h-1.63V70.1h1.62V66.68Z" transform="translate(0 0.49)"/><path class="cls-2" d="M175.87,72.92l-2.43.82c-.14-.3-.25-.56-.38-.79a1.76,1.76,0,0,0-3-.09,5.26,5.26,0,0,0,0,4.65,1.79,1.79,0,0,0,3-.15c.18-.28.32-.69.56-.77s.61.16.92.27l1.35.48a4.24,4.24,0,0,1-3.37,2.89,7,7,0,0,1-2.42,0c-2.2-.46-3.46-2.12-3.56-4.62a7.77,7.77,0,0,1,.23-2.26c.73-2.75,3.25-3.55,5.35-3.37A4,4,0,0,1,175.87,72.92Z" transform="translate(0 0.49)"/><path class="cls-2" d="M126.67,71.33l.74-2.2h-1V66.26h3c-.1,1.22.32,2.49-.54,3.6a2,2,0,0,0-.31.54A1.34,1.34,0,0,1,126.67,71.33Z" transform="translate(0 0.49)"/></svg>